<?xml version="1.0" encoding="UTF-8" standalone="no"?>
<!-- Created with Inkscape (http://www.inkscape.org/) -->

<svg
   width="10.49192mm"
   height="10.719208mm"
   viewBox="0 0 10.49192 10.719208"
   version="1.1"
   id="svg5"
   xml:space="preserve"
   xmlns="http://www.w3.org/2000/svg"
   xmlns:svg="http://www.w3.org/2000/svg"><defs
     id="defs2" /><g
     id="layer1"
     transform="translate(-33.01439,-56.755377)"><g
       id="g179"
       transform="matrix(0.08365817,0,0,0.08365817,29.550863,51.571847)"><path
         style="fill:#6767f3;stroke-width:0.105385"
         d="m 98.133894,139.72387 c -4.625449,-5.90949 -8.40381,-10.79838 -8.396359,-10.8642 0.01228,-0.10846 9.629815,-25.47277 9.688187,-25.55064 0.06227,-0.0831 26.663258,-4.110591 26.718408,-4.045296 0.61618,0.729461 16.74663,21.424826 16.74657,21.485846 -9e-5,0.1023 -9.65585,25.53265 -9.71831,25.59512 -0.0235,0.0235 -5.77802,0.92237 -12.78783,1.9975 -7.0098,1.07512 -12.99162,1.99334 -13.29293,2.04048 l -0.54783,0.0857 z M 77.552005,124.86751 c -6.462743,-2.14666 -11.762389,-3.91223 -11.776992,-3.92351 -0.0146,-0.0113 2.15298,-5.75466 4.816851,-12.7631 3.086328,-8.11989 4.89283,-12.738763 4.979651,-12.732 0.372613,0.02903 23.584551,7.79147 23.585228,7.88728 0.0019,0.26923 -9.6403,25.45535 -9.74147,25.44542 -0.06206,-0.006 -5.400525,-1.76744 -11.863268,-3.91409 z"
         id="path193" /><path
         style="fill:#5151bd;stroke-width:0.105385"
         d="M 77.4745,179.55709 65.646552,175.63604 57.214209,164.8679 48.781866,154.09976 v -11.32348 -11.32347 l 8.415074,-5.17379 8.415075,-5.17379 11.979377,3.97546 11.979378,3.97545 8.423415,10.74928 8.423415,10.74928 0.003,11.3289 0.003,11.3289 -8.365429,5.13753 c -4.600987,2.82563 -8.453316,5.1354 -8.560732,5.13281 -0.107415,-0.003 -5.517877,-1.76919 -12.023248,-3.92575 z m 29.16384,-17.6631 4e-5,-11.2339 12.98867,-1.98757 c 7.14378,-1.09317 13.1191,-2.01199 13.27849,-2.04184 l 0.28981,-0.0543 v 11.22496 11.22496 l -0.3425,0.0622 c -0.18838,0.0342 -5.91474,0.91839 -12.72525,1.96479 -6.81052,1.0464 -12.63173,1.94125 -12.93603,1.98854 l -0.55327,0.086 z m 28.00001,-52.03664 c -4.61913,-5.89854 -8.39842,-10.752625 -8.39842,-10.786856 0,-0.03423 3.07888,-3.106801 6.84195,-6.827934 l 6.84194,-6.765693 0.36263,0.449149 c 1.41792,1.756251 16.40978,20.967964 16.40978,21.028754 0,0.0691 -8.4906,8.55687 -12.17802,12.17401 l -1.48143,1.4532 z"
         id="path191" /><path
         style="fill:#44449b;stroke-width:0.105385"
         d="M 87.369003,99.127266 C 80.857198,96.961562 75.506998,95.167262 75.47967,95.139933 c -0.119291,-0.11929 -7.105619,-15.163341 -7.0762,-15.237578 0.018,-0.04541 3.103935,-3.130661 6.857642,-6.856104 l 6.82492,-6.773534 13.364816,-2.050681 13.364812,-2.050681 11.95273,3.962484 11.95273,3.962483 3.55082,7.612496 3.55082,7.612497 -1.23235,1.24569 c -0.67779,0.685129 -3.77934,3.75961 -6.89233,6.83218 l -5.65999,5.58649 -12.94049,1.984565 c -7.11727,1.09151 -13.15389,2.00934 -13.414718,2.03962 -0.418098,0.0485 -1.875715,-0.41106 -12.313879,-3.882594 z"
         id="path189" /><path
         style="fill:#3d3d8a;stroke-width:0.105385"
         d="m 45.162385,123.69232 -3.553157,-7.60674 4.882335,-12.84843 4.882335,-12.848422 8.365922,-5.141989 c 4.601255,-2.828093 8.392849,-5.141365 8.425761,-5.140606 0.03291,7.38e-4 1.641926,3.391049 3.575587,7.533975 2.641673,5.659863 3.500089,7.594974 3.452771,7.783506 -0.06226,0.248061 -9.633645,25.479666 -9.682981,25.525786 -0.01405,0.0131 -3.629721,2.23775 -8.034819,4.94358 -4.405099,2.70583 -8.178318,5.02913 -8.384933,5.16289 l -0.375664,0.24319 z"
         id="path187" /><path
         style="fill:#333372;stroke-width:0.105385"
         d="m 138.22749,172.24415 -4.82137,-3.11436 0.001,-11.39525 0.001,-11.39524 4.87272,-12.81561 4.87272,-12.8156 6.86502,-6.81256 6.86501,-6.81257 4.85908,3.13499 4.85908,3.13499 v 11.23665 11.23665 l -4.90079,12.89695 -4.90078,12.89695 -6.87601,6.86918 -6.876,6.86918 z"
         id="path185" /><path
         style="fill:#292959;stroke-width:0.105385"
         d="m 97.729777,188.82804 c -0.813378,-0.53186 -2.939391,-1.90978 -4.724472,-3.06205 l -3.245602,-2.09506 0.614454,-0.38666 c 0.337948,-0.21265 4.10887,-2.53336 8.379824,-5.15711 l 7.765369,-4.77047 13.36919,-2.05703 13.36918,-2.05704 4.80621,3.1011 4.80621,3.10109 -8.39414,5.1582 -8.39414,5.15819 -13.22584,2.02873 c -7.27421,1.1158 -13.320677,2.0234 -13.436601,2.01691 -0.115924,-0.007 -0.876263,-0.44696 -1.689642,-0.9788 z"
         id="path183" /><path
         style="fill:#19192b;stroke-width:0.105385"
         d="m 99.239988,190.07033 c -0.02895,-0.029 -5.406684,-1.8252 -11.950511,-3.99166 l -11.897867,-3.93902 -4.900408,-3.15827 -4.900409,-3.15828 -8.499429,-10.84265 -8.499429,-10.84265 -3.595491,-7.69312 -3.59549,-7.69311 0.002,-11.34163 0.002,-11.34163 4.887193,-12.86077 4.887194,-12.860762 6.975836,-6.933135 6.975837,-6.933134 8.291875,-5.104066 c 4.560532,-2.807236 8.457857,-5.167726 8.660724,-5.245532 0.202866,-0.07781 6.300746,-1.047905 13.550844,-2.155774 l 13.182003,-2.014307 11.97854,3.968176 11.97855,3.968175 4.92691,3.1759 c 2.7098,1.746745 4.98717,3.258529 5.06083,3.35952 0.56025,0.768184 16.62554,21.244647 16.73948,21.335775 0.0805,0.06435 0.1463,0.153143 0.1463,0.197313 0,0.0659 5.70976,12.339271 6.84029,14.703511 l 0.32778,0.68545 -0.0277,11.38114 -0.0277,11.38115 -4.87549,12.75534 -4.8755,12.75533 -6.93315,6.9302 -6.93316,6.9302 -8.42487,5.17707 c -4.63368,2.84739 -8.44068,5.21637 -8.46,5.26439 -0.0193,0.048 -0.13925,0.0873 -0.2665,0.0873 -0.23239,0 -26.062034,3.9542 -26.4769,4.05329 -0.121809,0.0291 -0.24516,0.0292 -0.274115,0 z m 13.616032,-2.2804 13.22584,-2.02873 8.39414,-5.15819 8.39414,-5.1582 -4.80621,-3.10109 -4.80621,-3.1011 -13.36918,2.05704 -13.36919,2.05703 -7.765369,4.77047 c -4.270954,2.62375 -8.041876,4.94446 -8.379824,5.15711 l -0.614454,0.38666 3.245602,2.09506 c 1.785081,1.15227 3.911094,2.53019 4.724472,3.06205 0.813379,0.53184 1.573718,0.97231 1.689642,0.9788 0.115924,0.007 6.162391,-0.90111 13.436601,-2.01691 z m -14.79754,-9.4399 8.36543,-5.13753 -0.003,-11.3289 -0.003,-11.3289 -8.423416,-10.74928 -8.423415,-10.74928 -11.979377,-3.97545 -11.979377,-3.97546 -8.415075,5.17379 -8.415074,5.17379 v 11.32347 11.32348 l 8.432343,10.76814 8.432343,10.76814 11.827948,3.92105 c 6.505371,2.15656 11.915833,3.92316 12.023248,3.92575 0.107415,0.003 3.959745,-2.30718 8.560732,-5.13281 z m 63.64317,-29.62684 4.90079,-12.89695 v -11.23665 -11.23665 l -4.85908,-3.13499 -4.85908,-3.13499 -6.86501,6.81257 -6.86502,6.81256 -4.87272,12.8156 -4.87272,12.81561 -10e-4,11.39524 -0.001,11.39525 4.82137,3.11436 4.82137,3.11435 6.876,-6.86918 6.87601,-6.86918 z m -41.57405,22.33016 c 6.81051,-1.0464 12.53687,-1.93056 12.72525,-1.96479 l 0.3425,-0.0622 V 157.8014 146.57644 l -0.28981,0.0543 c -0.15939,0.0298 -6.13471,0.94867 -13.27849,2.04184 l -12.98867,1.98757 -4e-5,11.2339 -4e-5,11.23391 0.55327,-0.086 c 0.3043,-0.0473 6.12551,-0.94214 12.93603,-1.98854 z m 0.25696,-22.71115 c 7.00981,-1.07513 12.76433,-1.974 12.78783,-1.9975 0.0625,-0.0625 9.71822,-25.49282 9.71831,-25.59512 6e-5,-0.061 -16.13039,-20.756385 -16.74657,-21.485846 -0.0551,-0.0653 -26.656135,3.962226 -26.718408,4.045296 -0.05837,0.0779 -9.675911,25.44218 -9.688187,25.55064 -0.0075,0.0658 3.77091,4.95471 8.396359,10.8642 l 8.409906,10.74452 0.54783,-0.0857 c 0.30131,-0.0471 6.28313,-0.96536 13.29293,-2.04048 z M 57.476139,125.89298 c 4.405098,-2.70583 8.020767,-4.93045 8.034819,-4.94358 0.04934,-0.0461 9.620722,-25.277725 9.682981,-25.525786 0.04732,-0.188532 -0.811098,-2.123643 -3.452771,-7.783506 -1.933661,-4.142926 -3.542674,-7.533215 -3.575587,-7.533975 -0.03291,-7.37e-4 -3.824506,2.312513 -8.425761,5.140606 l -8.365922,5.141989 -4.882335,12.848422 -4.882335,12.84843 3.553157,7.60674 3.553157,7.60674 0.375664,-0.24319 c 0.206615,-0.13376 3.979834,-2.45706 8.384933,-5.16289 z m 36.866676,-9.77287 c 2.648093,-6.9699 4.81436,-12.72268 4.813928,-12.78393 -6.32e-4,-0.0958 -23.212615,-7.85825 -23.585228,-7.88728 -0.08682,-0.0068 -1.893323,4.61211 -4.979651,12.732 -2.663871,7.00844 -4.831453,12.75183 -4.816851,12.7631 0.05646,0.0436 23.533718,7.82714 23.64026,7.8376 0.06206,0.006 2.279448,-5.69158 4.927542,-12.66149 z m 57.005125,-3.76661 c 2.94156,-2.92714 5.34829,-5.35657 5.34829,-5.39873 0,-0.0608 -14.99186,-19.272503 -16.40978,-21.028754 l -0.36263,-0.449149 -6.84194,6.765693 c -3.76307,3.721133 -6.84195,6.793702 -6.84195,6.827934 0,0.03423 3.77929,4.888316 8.39842,10.786856 l 8.39843,10.72463 1.48143,-1.4532 c 0.81479,-0.79926 3.88817,-3.84814 6.82973,-6.77528 z m -38.25034,-11.38326 12.94049,-1.984565 5.65999,-5.58649 c 3.11299,-3.07257 6.21454,-6.147051 6.89233,-6.83218 l 1.23235,-1.24569 -3.55082,-7.612497 -3.55082,-7.612496 -11.95273,-3.962483 -11.95273,-3.962484 -13.364812,2.050681 -13.364816,2.050681 -6.82492,6.773534 c -3.753707,3.725443 -6.839645,6.81069 -6.857642,6.856104 -0.02942,0.07424 6.956909,15.118288 7.0762,15.237578 0.02733,0.02733 5.377528,1.821629 11.889333,3.987333 10.438164,3.471534 11.895781,3.931124 12.313879,3.882594 0.260828,-0.0303 6.297448,-0.94811 13.414718,-2.03962 z"
         id="path181" /></g></g></svg>
