<?xml version="1.0" encoding="UTF-8" standalone="no"?>
<!-- Created with Inkscape (http://www.inkscape.org/) -->

<svg
   width="43.298mm"
   height="43.294003mm"
   viewBox="0 0 43.298 43.294003"
   version="1.1"
   id="svg5"
   xml:space="preserve"
   xmlns="http://www.w3.org/2000/svg"
   xmlns:svg="http://www.w3.org/2000/svg"><defs
     id="defs2" /><g
     id="layer1"
     transform="translate(-82.361167,-12.157732)"><g
       id="g3144"><path
         style="fill:#19192b;stroke:#000000;stroke-width:0.264;stroke-dasharray:none;stroke-opacity:1"
         d="m 102.77608,51.91342 c -0.008,-0.0082 -1.45666,-0.513186 -3.219699,-1.122322 l -3.2055,-1.107521 -1.32026,-0.888001 -1.32026,-0.888003 -2.28991,-3.048592 -2.2899,-3.048592 -0.96869,-2.16305 -0.96869,-2.163046 5.4e-4,-3.188889 5.4e-4,-3.188889 1.3167,-3.61602 1.3167,-3.616018 1.87942,-1.949367 1.87941,-1.949366 2.23399,-1.435094 c 1.22869,-0.789301 2.2787,-1.452992 2.33336,-1.474869 0.0547,-0.02188 1.69754,-0.294636 3.650849,-0.606132 l 3.55147,-0.566356 3.22724,1.115719 3.22725,1.115719 1.3274,0.892957 c 0.73007,0.491127 1.34363,0.91619 1.36348,0.944586 0.15094,0.215987 4.47923,5.973287 4.50992,5.998909 0.0217,0.01809 0.0394,0.04306 0.0394,0.05548 0,0.01853 1.53832,3.469392 1.8429,4.134138 l 0.0883,0.192726 -0.007,3.199997 -0.007,3.200001 -1.31355,3.586377 -1.31355,3.586374 -1.86792,1.948541 -1.86792,1.948542 -2.26982,1.45562 c -1.2484,0.800591 -2.27407,1.466669 -2.27928,1.480171 -0.005,0.0135 -0.0375,0.02455 -0.0718,0.02455 -0.0626,0 -7.02159,1.111789 -7.13336,1.13965 -0.0328,0.0082 -0.0661,0.0082 -0.0739,0 z"
         id="path181" /><path
         style="fill:#5151bd;stroke:#000000;stroke-width:0.264;stroke-dasharray:none;stroke-opacity:1"
         d="m 97.014301,48.957448 -3.186668,-1.102469 -2.271829,-3.027642 -2.271829,-3.027643 v -3.183785 -3.183783 l 2.267176,-1.454698 2.267177,-1.454697 3.227466,1.117767 3.227466,1.117764 2.26942,3.02234 2.26943,3.022339 8.1e-4,3.18531 8e-4,3.185309 -2.2538,1.444503 c -1.23959,0.794473 -2.27748,1.443903 -2.30642,1.443175 -0.0289,-8.43e-4 -1.486615,-0.497437 -3.239282,-1.10379 z m 7.857279,-4.966276 1e-5,-3.158599 3.49939,-0.558838 c 1.92466,-0.307363 3.53453,-0.565705 3.57747,-0.574098 l 0.0781,-0.01527 v 3.156085 3.156085 l -0.0923,0.01749 c -0.0508,0.0096 -1.59354,0.258221 -3.42842,0.552433 -1.83488,0.294213 -3.40322,0.545815 -3.4852,0.559112 l -0.14906,0.02418 z m 7.54372,-14.630971 c -1.24448,-1.658473 -2.26269,-3.02328 -2.26269,-3.032905 0,-0.0096 0.82951,-0.873529 1.84335,-1.919787 l 1.84334,-1.902288 0.0977,0.126286 c 0.38202,0.493799 4.4211,5.895493 4.4211,5.912585 0,0.01943 -2.28752,2.405907 -3.28098,3.422927 l -0.39913,0.408591 z"
         id="path191" /><path
         style="fill:#44449b;stroke:#000000;stroke-width:0.264;stroke-dasharray:none;stroke-opacity:1"
         d="m 99.680063,26.343259 c -1.754401,-0.608924 -3.195844,-1.113421 -3.203206,-1.121105 -0.03214,-0.03354 -1.914385,-4.263427 -1.906459,-4.2843 0.0048,-0.01277 0.836257,-0.880238 1.847575,-1.927708 l 1.83876,-1.904493 3.600727,-0.576583 3.60073,-0.576583 3.22029,1.114119 3.22028,1.114118 0.95666,2.14038 0.95665,2.140381 -0.33201,0.350247 c -0.18261,0.192635 -1.01823,1.057077 -1.85692,1.920981 l -1.52491,1.570735 -3.48641,0.557994 c -1.91752,0.306896 -3.5439,0.564959 -3.61417,0.573473 -0.11264,0.01364 -0.50535,-0.115576 -3.317587,-1.091656 z"
         id="path189" /><path
         style="fill:#3d3d8a;stroke:#000000;stroke-width:0.264;stroke-dasharray:none;stroke-opacity:1"
         d="m 88.30882,33.250134 -0.957287,-2.138762 1.315392,-3.612551 1.315391,-3.612548 2.253934,-1.445756 c 1.239663,-0.795166 2.261189,-1.445581 2.270056,-1.445368 0.0089,2.08e-4 0.442365,0.953451 0.963329,2.118303 0.711716,1.591365 0.942989,2.135454 0.930241,2.188463 -0.01677,0.06975 -2.595483,7.164034 -2.608775,7.177001 -0.0038,0.0037 -0.977914,0.629181 -2.164728,1.389971 -1.186816,0.760789 -2.203391,1.414024 -2.259056,1.451632 l -0.101211,0.06838 z"
         id="path187" /><path
         style="fill:#333372;stroke:#000000;stroke-width:0.264;stroke-dasharray:none;stroke-opacity:1"
         d="m 113.38228,46.901293 -1.29897,-0.875655 2.7e-4,-3.203965 2.7e-4,-3.203962 1.3128,-3.603323 1.3128,-3.60332 1.84957,-1.915465 1.84956,-1.915468 1.30912,0.881455 1.30913,0.881455 v 3.159372 3.159372 l -1.32036,3.626193 -1.32036,3.626193 -1.85253,1.931384 -1.85252,1.931385 z"
         id="path185" /><path
         style="fill:#292959;stroke:#000000;stroke-width:0.264;stroke-dasharray:none;stroke-opacity:1"
         d="m 102.47145,51.56413 c -0.21914,-0.149541 -0.79193,-0.536966 -1.27286,-0.860946 l -0.87443,-0.589061 0.16555,-0.108716 c 0.091,-0.05979 1.107,-0.712297 2.25768,-1.450008 l 2.09213,-1.341297 3.60191,-0.578369 3.6019,-0.578371 1.29488,0.871926 1.29489,0.871924 -2.26154,1.450314 -2.26154,1.450311 -3.56328,0.570411 c -1.95981,0.313726 -3.58884,0.568913 -3.62007,0.567088 -0.0312,-0.002 -0.23608,-0.12567 -0.45522,-0.275206 z"
         id="path183" /><path
         style="fill:#6f6fc3;fill-opacity:1;stroke:#000000;stroke-width:0.264;stroke-dasharray:none;stroke-opacity:1"
         d="m 101.55894,31.172204 c 0.71344,-1.959704 1.29707,-3.577194 1.29696,-3.594416 -1.7e-4,-0.02694 -6.25391,-2.209478 -6.354299,-2.21764 -0.02339,-0.0019 -0.510096,1.296772 -1.34161,3.579814 -0.717696,1.97054 -1.301682,3.58539 -1.297748,3.588559 0.01521,0.01226 6.340417,2.200731 6.369127,2.203672 0.0167,0.0017 0.61412,-1.600282 1.32757,-3.559989 z"
         id="path1678" /><path
         style="fill:#6f6fc3;fill-opacity:1;stroke:#000000;stroke-width:0.264;stroke-dasharray:none;stroke-opacity:1"
         d="m 108.52391,40.18086 c 1.88858,-0.302291 3.43895,-0.555023 3.44528,-0.561631 0.0168,-0.01757 2.61827,-7.167732 2.61829,-7.196495 2e-5,-0.01715 -4.34582,-5.836005 -4.51183,-6.041105 -0.0149,-0.01836 -7.18166,1.114046 -7.19843,1.137403 -0.0157,0.0219 -2.60687,7.153494 -2.61018,7.183989 -0.002,0.0185 1.01595,1.3931 2.26213,3.054651 l 2.26579,3.021002 0.14759,-0.0241 c 0.0812,-0.01324 1.69279,-0.271427 3.58136,-0.573714 z"
         id="path1674" /></g></g></svg>
